HIERARCHY
ROOT Hips
{
    OFFSET   0.000000   0.000000   0.000000
    CHANNELS 6 Xposition Yposition Zposition Zrotation Xrotation Yrotation
    JOINT Chest
    {
        OFFSET   0.000000   8.007230   0.000000
        CHANNELS 3 Zrotation Xrotation Yrotation
        JOINT Chest2
        {
            OFFSET   0.000000  22.077100   0.000000
            CHANNELS 3 Zrotation Xrotation Yrotation
            JOINT Neck
            {
                OFFSET   0.000000  23.255100   0.000000
                CHANNELS 3 Zrotation Xrotation Yrotation
                JOINT Head
                {
                    OFFSET   0.000000  14.370100   1.956600
                    CHANNELS 3 Zrotation Xrotation Yrotation
                    End Site
                    {
                        OFFSET   0.000000  19.566000   0.000000
                    }
                }
            }
            JOINT LeftCollar
            {
                OFFSET   3.911900  19.017000  -0.467063
                CHANNELS 3 Zrotation Xrotation Yrotation
                JOINT LeftShoulder
                {
                    OFFSET  10.383700   0.000000   0.000000
                    CHANNELS 3 Zrotation Xrotation Yrotation
                    JOINT LeftElbow
                    {
                        OFFSET  26.662100   0.001193   0.000980
                        CHANNELS 3 Zrotation Xrotation Yrotation
                        JOINT LeftWrist
                        {
                            OFFSET  28.869000  -0.000059  -0.000082
                            CHANNELS 3 Zrotation Xrotation Yrotation
                            JOINT LeftFinger0
                            {
                                OFFSET   2.044650  -2.323450   3.252850
                                CHANNELS 3 Zrotation Xrotation Yrotation
                                JOINT LeftFinger01
                                {
                                    OFFSET   3.088130   0.000000   0.000000
                                    CHANNELS 3 Zrotation Xrotation Yrotation
                                    JOINT LeftFinger02
                                    {
                                        OFFSET   2.639460   0.000000   0.000000
                                        CHANNELS 3 Zrotation Xrotation Yrotation
                                        End Site
                                        {
                                            OFFSET   2.582190   0.000000   0.000000
                                        }
                                    }
                                }
                            }
                            JOINT LeftFinger1
                            {
                                OFFSET   8.364480   0.000000   3.252850
                                CHANNELS 3 Zrotation Xrotation Yrotation
                                JOINT LeftFinger11
                                {
                                    OFFSET   4.646930   0.000000   0.000000
                                    CHANNELS 3 Zrotation Xrotation Yrotation
                                    JOINT LeftFinger12
                                    {
                                        OFFSET   2.323470   0.000000   0.000000
                                        CHANNELS 3 Zrotation Xrotation Yrotation
                                        End Site
                                        {
                                            OFFSET   2.273050   0.000000   0.000000
                                        }
                                    }
                                }
                            }
                            JOINT LeftFinger2
                            {
                                OFFSET   8.364490   0.000016   1.078090
                                CHANNELS 3 Zrotation Xrotation Yrotation
                                JOINT LeftFinger21
                                {
                                    OFFSET   5.111610   0.000000   0.000000
                                    CHANNELS 3 Zrotation Xrotation Yrotation
                                    JOINT LeftFinger22
                                    {
                                        OFFSET   2.788150   0.000016   0.000000
                                        CHANNELS 3 Zrotation Xrotation Yrotation
                                        End Site
                                        {
                                            OFFSET   2.727660   0.000000   0.000000
                                        }
                                    }
                                }
                            }
                            JOINT LeftFinger3
                            {
                                OFFSET   7.899780   0.000015  -1.078090
                                CHANNELS 3 Zrotation Xrotation Yrotation
                                JOINT LeftFinger31
                                {
                                    OFFSET   4.646930   0.000000   0.000000
                                    CHANNELS 3 Zrotation Xrotation Yrotation
                                    JOINT LeftFinger32
                                    {
                                        OFFSET   2.323470   0.000000   0.000000
                                        CHANNELS 3 Zrotation Xrotation Yrotation
                                        End Site
                                        {
                                            OFFSET   2.273050   0.000000   0.000000
                                        }
                                    }
                                }
                            }
                            JOINT LeftFinger4
                            {
                                OFFSET   7.435090   0.000000  -3.252850
                                CHANNELS 3 Zrotation Xrotation Yrotation
                                JOINT LeftFinger41
                                {
                                    OFFSET   3.717550   0.000000   0.000000
                                    CHANNELS 3 Zrotation Xrotation Yrotation
                                    JOINT LeftFinger42
                                    {
                                        OFFSET   1.858770   0.000000   0.000000
                                        CHANNELS 3 Zrotation Xrotation Yrotation
                                        End Site
                                        {
                                            OFFSET   1.818440   0.000000   0.000000
                                        }
                                    }
                                }
                            }
                        }
                    }
                }
            }
            JOINT RightCollar
            {
                OFFSET  -3.911910  19.017000  -0.467062
                CHANNELS 3 Zrotation Xrotation Yrotation
                JOINT RightShoulder
                {
                    OFFSET -10.383700   0.000014   0.000000
                    CHANNELS 3 Zrotation Xrotation Yrotation
                    JOINT RightElbow
                    {
                        OFFSET -26.662100   0.001225   0.001091
                        CHANNELS 3 Zrotation Xrotation Yrotation
                        JOINT RightWrist
                        {
                            OFFSET -28.869000  -0.000020  -0.000085
                            CHANNELS 3 Zrotation Xrotation Yrotation
                            JOINT RightFinger0
                            {
                                OFFSET  -2.044650  -2.323490   3.252850
                                CHANNELS 3 Zrotation Xrotation Yrotation
                                JOINT RightFinger01
                                {
                                    OFFSET  -3.088130   0.000000   0.000000
                                    CHANNELS 3 Zrotation Xrotation Yrotation
                                    JOINT RightFinger02
                                    {
                                        OFFSET  -2.639460   0.000000   0.000000
                                        CHANNELS 3 Zrotation Xrotation Yrotation
                                        End Site
                                        {
                                            OFFSET  -2.582190   0.000000   0.000000
                                        }
                                    }
                                }
                            }
                            JOINT RightFinger1
                            {
                                OFFSET  -8.364480   0.000000   3.252850
                                CHANNELS 3 Zrotation Xrotation Yrotation
                                JOINT RightFinger11
                                {
                                    OFFSET  -4.646930   0.000000   0.000000
                                    CHANNELS 3 Zrotation Xrotation Yrotation
                                    JOINT RightFinger12
                                    {
                                        OFFSET  -2.323470   0.000000   0.000000
                                        CHANNELS 3 Zrotation Xrotation Yrotation
                                        End Site
                                        {
                                            OFFSET  -2.273050   0.000000   0.000000
                                        }
                                    }
                                }
                            }
                            JOINT RightFinger2
                            {
                                OFFSET  -8.364480   0.000000   1.078090
                                CHANNELS 3 Zrotation Xrotation Yrotation
                                JOINT RightFinger21
                                {
                                    OFFSET  -5.111620   0.000000   0.000000
                                    CHANNELS 3 Zrotation Xrotation Yrotation
                                    JOINT RightFinger22
                                    {
                                        OFFSET  -2.788160   0.000000   0.000000
                                        CHANNELS 3 Zrotation Xrotation Yrotation
                                        End Site
                                        {
                                            OFFSET  -2.727660   0.000000   0.000000
                                        }
                                    }
                                }
                            }
                            JOINT RightFinger3
                            {
                                OFFSET  -7.899780   0.000000  -1.078090
                                CHANNELS 3 Zrotation Xrotation Yrotation
                                JOINT RightFinger31
                                {
                                    OFFSET  -4.646930   0.000000   0.000000
                                    CHANNELS 3 Zrotation Xrotation Yrotation
                                    JOINT RightFinger32
                                    {
                                        OFFSET  -2.323470   0.000000   0.000000
                                        CHANNELS 3 Zrotation Xrotation Yrotation
                                        End Site
                                        {
                                            OFFSET  -2.273050   0.000000   0.000000
                                        }
                                    }
                                }
                            }
                            JOINT RightFinger4
                            {
                                OFFSET  -7.435090   0.000000  -3.252850
                                CHANNELS 3 Zrotation Xrotation Yrotation
                                JOINT RightFinger41
                                {
                                    OFFSET  -3.717550   0.000000   0.000000
                                    CHANNELS 3 Zrotation Xrotation Yrotation
                                    JOINT RightFinger42
                                    {
                                        OFFSET  -1.858760   0.000000   0.000000
                                        CHANNELS 3 Zrotation Xrotation Yrotation
                                        End Site
                                        {
                                            OFFSET  -1.818440   0.000000   0.000000
                                        }
                                    }
                                }
                            }
                        }
                    }
                }
            }
        }
    }
    JOINT LeftHip
    {
        OFFSET   9.783030   0.000000   0.000000
        CHANNELS 3 Zrotation Xrotation Yrotation
        JOINT LeftKnee
        {
            OFFSET   0.000063 -41.789100   0.000608
            CHANNELS 3 Zrotation Xrotation Yrotation
            JOINT LeftAnkle
            {
                OFFSET   0.000048 -41.133200  -0.000184
                CHANNELS 3 Zrotation Xrotation Yrotation
                JOINT LeftToe
                {
                    OFFSET   0.000000  -6.358960  14.674500
                    CHANNELS 3 Zrotation Xrotation Yrotation
                    End Site
                    {
                        OFFSET   0.000000   0.000000   3.913200
                    }
                }
            }
        }
    }
    JOINT RightHip
    {
        OFFSET  -9.783030   0.000000   0.000000
        CHANNELS 3 Zrotation Xrotation Yrotation
        JOINT RightKnee
        {
            OFFSET   0.000071 -41.789100   0.001239
            CHANNELS 3 Zrotation Xrotation Yrotation
            JOINT RightAnkle
            {
                OFFSET   0.000037 -41.133200  -0.000166
                CHANNELS 3 Zrotation Xrotation Yrotation
                JOINT RightToe
                {
                    OFFSET   0.000000  -6.358960  14.674500
                    CHANNELS 3 Zrotation Xrotation Yrotation
                    End Site
                    {
                        OFFSET   0.000000   0.000000   3.913200
                    }
                }
            }
        }
    }
}
MOTION
Frames: 4
Frame Time:   0.016667
 -0.395434  89.552200  -0.243745  -3.235100 -11.504100  -4.632630   1.178660   6.516390   0.526095   2.319950  13.041300   0.925360   2.676080   0.718981  -0.033427   4.395530   1.448040   2.569810  -4.410590  -0.795559  -0.271919 -72.707800  25.355100  -4.091360  -3.037440  -7.667540 -15.940400  16.947600 -14.810800   6.873660  37.853400  34.681100 -69.654000 -33.082100  -0.001168   0.000111 -11.541000   0.001541   0.003345 -31.288500   6.605580 -10.721800 -26.110600  -0.003637   0.001530 -18.277500  -0.002330   0.002422 -28.533400  -0.573194   1.054390 -36.617800  -0.000789  -0.000780 -24.387500   0.000093  -0.000473 -28.267500  -0.568358   1.057060 -33.996800   0.000911   0.000000 -22.641900   0.000506  -0.001960 -30.798900  -0.614730   1.031400 -46.208200   0.002181  -0.000562 -30.774700   0.000071  -0.001774   6.911750  -1.782910   6.303650  41.886600  -1.503550  39.581000 -34.416200 -36.099100  90.377800 -52.980100  13.632000  38.822700 -20.293700  48.077800  62.013400  81.097400  -0.000007  -0.003712  47.350800  -0.000697   0.001297  71.169100   1.892940   0.641845  58.238400   0.004799   0.000359  43.678800  -0.002926   0.000511  20.109700   0.691125   1.875500  20.121500   0.002172   0.000379  13.400900  -0.000228   0.000155   6.486520  -1.520130 -13.129400   6.660800   0.000652  -0.000213   4.436110   0.001200  -0.007094  15.778800  -8.240910 -26.941800  26.639600  -0.000502   0.000199  17.742000   0.001055   0.000773   2.408980  13.789900   2.244550   1.305120   0.030552   4.854730  -1.679450  -3.662080   1.062210  -0.000000   0.000000   0.000000   5.054570  10.952700  -4.027070  -2.421730   4.455340  -2.516280  -0.187710  -5.145480   0.941380   0.000000   0.000000  -0.000000
 -0.397695  89.554800  -0.236537  -3.250150 -11.492300  -4.694600   1.176610   6.492290   0.518055   2.316230  12.993700   0.909692   2.702530   0.834841  -0.039454   4.442580   1.681310   2.589990  -4.396620  -0.774270  -0.355690 -72.669000  25.529500  -4.160230  -3.074560  -7.700270 -15.818800  16.734600 -14.309900   6.719800  37.870400  34.694500 -69.664800 -32.973900  -0.001452   0.000000 -11.487000   0.001542   0.003273 -31.136900   6.664630 -10.874500 -25.995400  -0.003630   0.001394 -18.196800  -0.002327   0.002320 -28.511900  -0.498573   0.917799 -36.336000  -0.000842  -0.000635 -24.199800   0.000000  -0.000375 -28.230800  -0.494082   0.920242 -33.680700   0.000957  -0.000000 -22.431400   0.000508  -0.001963 -30.585800  -0.531677   0.899306 -45.885200   0.002153  -0.000535 -30.559600   0.000073  -0.001776   6.934260  -1.798800   6.235400  42.542300  -2.064420  39.556500 -33.676800 -34.731100  90.043600 -52.760600  13.927700  38.829700 -20.053200  48.082500  61.776100  81.603700  -0.000141  -0.007729  47.688000  -0.000715   0.001058  71.350600   1.795440   0.600259  58.386200   0.005034   0.000407  43.789600  -0.002957   0.000507  20.383600   0.664776   1.772400  20.394800   0.002076   0.000468  13.582900  -0.000241   0.000211   6.656130  -1.595850 -13.457300   6.845340   0.000623  -0.000150   4.559010   0.001104  -0.007318  16.069100  -8.387770 -26.873400  27.117000  -0.000367   0.000000  18.060000   0.000944   0.000708   2.424570  13.774500   2.231480   1.292770   0.066595   4.903210  -1.682170  -3.690950   1.073880   0.000000   0.000000  -0.000000   5.054760  10.950000  -4.023940  -2.416990   4.450320  -2.477170  -0.192193  -5.146470   0.955178  -0.000000   0.000000   0.000000
 -0.404765  89.557800  -0.236593  -3.269460 -11.491100  -4.776830   1.165680   6.476530   0.550296   2.290930  12.963200   0.976126   2.771020   0.930875  -0.045556   4.555250   1.874250   2.489490  -4.379900  -0.749690  -0.485922 -72.628600  25.645100  -4.218870  -3.079230  -7.632960 -15.787800  16.689800 -13.888500   6.597430  37.809400  34.514800 -69.466200 -32.916800  -0.001750  -0.000049 -11.458400   0.001546   0.003144 -31.046800   6.690480 -10.955700 -25.924600  -0.003628   0.001262 -18.147300  -0.002317   0.002219 -28.499400  -0.459136   0.845655 -36.182900  -0.000895  -0.000476 -24.097800  -0.000059  -0.000204 -28.213200  -0.454905   0.847945 -33.534700   0.001000   0.000000 -22.334100   0.000507  -0.001963 -30.486000  -0.488176   0.829337 -45.734300   0.002126  -0.000496 -30.459100   0.000072  -0.001779   6.963630  -1.837240   6.118850  43.255500  -2.778750  39.522600 -32.630700 -33.192800  89.766400 -52.619900  14.408400  39.084600 -20.403900  48.299500  62.143900  80.949200  -0.000263  -0.008179  47.252200  -0.000726   0.000600  71.301800   1.911370   0.642405  58.347000   0.005269   0.000439  43.760200  -0.002984   0.000516  20.297800   0.702973   1.889710  20.309900   0.001971   0.000565  13.526400  -0.000250   0.000267   6.484290  -1.542210 -13.340700   6.665450   0.000591  -0.000071   4.439200   0.001012  -0.007550  15.904500  -8.231020 -26.646800  26.782500  -0.000239  -0.000198  17.837200   0.000815   0.000634   2.424790  13.776200   2.220130   1.293430   0.078369   4.952140  -1.680430  -3.703170   1.113920  -0.000000   0.000000  -0.000000   5.061780  10.950300  -4.030970  -2.421880   4.449430  -2.431680  -0.195595  -5.144300   0.995626   0.000000   0.000000  -0.000000
 -0.416614  89.561800  -0.236973  -3.291110 -11.490400  -4.868630   1.147740   6.468750   0.616450   2.246590  12.948300   1.112140   2.861330   0.979978  -0.049044   4.704510   1.972950   2.289330  -4.359530  -0.734276  -0.622712 -72.576900  25.706900  -4.272230  -3.061110  -7.532740 -15.780000  16.723100 -13.667900   6.529070  37.703200  34.210500 -69.128000 -32.879600  -0.002050  -0.000080 -11.439800   0.001551   0.003012 -30.996100   6.696130 -10.983800 -25.887800  -0.003625   0.001133 -18.121500  -0.002309   0.002114 -28.493800  -0.445591   0.820900 -36.116900  -0.000947  -0.000291 -24.053800  -0.000111   0.000000 -28.207000  -0.441482   0.823124 -33.484800   0.001044  -0.000000 -22.300900   0.000505  -0.001964 -30.448900  -0.473360   0.805257 -45.678300   0.002099  -0.000447 -30.421700   0.000072  -0.001781   6.993390  -1.882400   5.993470  43.917900  -3.458910  39.418600 -31.785200 -31.882600  89.633900 -52.447700  14.740400  39.338600 -20.985400  48.585500  62.749500  79.816700  -0.000374  -0.008244  46.497900  -0.000729   0.000291  71.157300   2.190500   0.745986  58.231000   0.005507   0.000467  43.673200  -0.003012   0.000528  20.080900   0.794391   2.173160  20.095800   0.001864   0.000658  13.383800  -0.000259   0.000322   6.168510  -1.440450 -13.088900   6.334260   0.000553  -0.000000   4.218610   0.000918  -0.007781  15.547500  -7.936680 -26.388500  26.117200  -0.000120  -0.000306  17.394100   0.000674   0.000563   2.421080  13.787500   2.205260   1.298480   0.080578   5.001170  -1.676710  -3.706290   1.172880  -0.000000   0.000000   0.000000   5.072880  10.953200  -4.045550  -2.428120   4.449120  -2.386820  -0.198448  -5.138940   1.054910  -0.000000   0.000000   0.000000
